<?xml version="1.0" encoding="UTF-8" standalone="no"?><!DOCTYPE svg PUBLIC "-//W3C//DTD SVG 1.1//EN" "http://www.w3.org/Graphics/SVG/1.1/DTD/svg11.dtd"><svg width="100%" height="100%" viewBox="0 0 750 750" version="1.1" xmlns="http://www.w3.org/2000/svg" xmlns:xlink="http://www.w3.org/1999/xlink" xml:space="preserve" xmlns:affinity="https://www.affinity.studio/" style="fill-rule:evenodd;clip-rule:evenodd;stroke-linejoin:round;"><rect x="0" y="0" width="750" height="750" style="fill:#16111b;"/><g><path d="M221.015,562.5c0,-96.096 -18.116,-171.171 -54.348,-225.225c66.425,18.018 113.225,57.057 140.399,117.117c18.116,-96.096 40.761,-171.171 67.935,-225.225c27.174,54.054 49.819,129.129 67.935,225.225c27.174,-60.06 73.973,-99.099 140.399,-117.117c-36.232,54.054 -54.348,129.129 -54.348,225.225l-307.971,0Z" style="fill:none;fill-rule:nonzero;stroke:#e3dee0;stroke-width:40.65px;"/><g><circle cx="375.001" cy="194.127" r="49.721" style="fill:#2f8480;"/><path d="M351.028,199.455c3.847,-9.471 7.843,-9.471 11.986,0c4.143,9.471 8.139,9.471 11.986,0c3.847,-9.471 7.843,-9.471 11.986,0c4.143,9.471 8.139,9.471 11.986,0" style="fill:none;fill-rule:nonzero;stroke:#16111b;stroke-width:9.77px;stroke-linecap:round;stroke-linejoin:miter;"/><rect x="346.589" y="234.97" width="56.824" height="37.291" style="fill:#2f8480;"/><rect x="357.243" y="242.073" width="6.215" height="23.085" style="fill:#e3dee0;"/><rect x="371.893" y="242.073" width="6.215" height="23.085" style="fill:#e3dee0;"/><rect x="386.543" y="242.073" width="6.215" height="23.085" style="fill:#e3dee0;"/></g><g><circle cx="138.826" cy="317.447" r="15.094" style="fill:#2f8480;"/><ellipse cx="138.826" cy="317.447" rx="58.6" ry="23.973" style="fill:none;stroke:#2f8480;stroke-width:10.65px;stroke-linejoin:miter;"/><path d="M159.587,305.46c16.171,28.009 19.997,56.12 8.539,62.735c-11.458,6.615 -33.89,-10.753 -50.061,-38.763c-16.171,-28.009 -19.997,-56.12 -8.539,-62.735c11.458,-6.615 33.89,10.753 50.061,38.763Z" style="fill:none;stroke:#2f8480;stroke-width:10.65px;stroke-linejoin:miter;"/><path d="M118.065,305.46c16.171,-28.009 38.602,-45.378 50.061,-38.763c11.458,6.615 7.632,34.726 -8.539,62.735c-16.171,28.009 -38.602,45.378 -50.061,38.763c-11.458,-6.615 -7.632,-34.726 8.539,-62.735Z" style="fill:none;stroke:#2f8480;stroke-width:10.65px;stroke-linejoin:miter;"/></g><g><path d="M641.222,274.536c23.683,16.583 29.448,49.274 12.864,72.957c-16.583,23.683 -49.274,29.448 -72.957,12.864c-23.683,-16.583 -29.448,-49.274 -12.864,-72.957c16.583,-23.683 49.274,-29.448 72.957,-12.864Z" style="fill:none;stroke:#2f8480;stroke-width:11.54px;stroke-linejoin:miter;"/><g><clipPath id="_clip1"><path d="M638.675,278.172c21.676,15.178 26.952,45.099 11.774,66.775c-15.178,21.676 -45.099,26.952 -66.775,11.774c-21.676,-15.178 -26.952,-45.099 -11.774,-66.775c15.178,-21.676 45.099,-26.952 66.775,-11.774Z"/></clipPath><g clip-path="url(#_clip1)"><path d="M586.451,267.618c17.458,-9.453 38.187,-0.358 46.55,10.917c-5.093,7.273 -14.258,9.527 -22.187,11.562c-8.729,4.727 -15.931,7.272 -21.459,12.071c-1.09,-6.183 -5.745,-7.275 -5.817,-14.912c-2.545,-7.201 -1.889,-14.33 2.912,-19.639Z" style="fill:#2f8480;fill-rule:nonzero;"/><path d="M638.239,275.699c8.292,3.638 8.581,12.512 0.143,15.275c-5.382,-1.601 -4.509,-7.493 -0.143,-15.275Z" style="fill:#2f8480;fill-rule:nonzero;"/><path d="M590.082,313.516c9.746,4.657 13.454,14.84 4.652,22.767c-8.002,5.236 -17.458,9.453 -23.641,10.544c5.166,-10.473 9.241,-27.13 18.989,-33.311Z" style="fill:#2f8480;fill-rule:nonzero;"/><path d="M648.274,300.068c9.092,0.947 14.837,8.221 11.709,15.786c-7.637,0.072 -13.747,-2.039 -16.583,-7.276l4.875,-8.51Z" style="fill:#2f8480;fill-rule:nonzero;"/><path d="M633.433,313.522c11.274,2.475 18.183,12.732 12.799,21.969c-7.857,9.673 -20.078,16.29 -30.553,21.962c1.456,-9.819 7.058,-17.82 6.986,-25.457c-0.581,-6.91 4.803,-16.147 10.768,-18.474Z" style="fill:#2f8480;fill-rule:nonzero;"/></g></g></g></g></svg>